<?xml version="1.0" encoding="UTF-8"?>
<svg id="Template" xmlns="http://www.w3.org/2000/svg" viewBox="0 0 600 100">
  <defs>
    <style>
      .cls-1 {
        fill: #76b1aa;
      }

      .cls-2 {
        fill: #145d66;
      }

      .cls-3 {
        fill: #ebfaf6;
      }
    </style>
  </defs>
  <path class="cls-3" d="M600,40.14l-12.73,1.4c-5.28.51-13.91.49-19.19-.04l-30.9-2.65c-5.29-.36-13.7-2.13-18.69-3.93l-31.88-11.26c-5.04-1.66-13.41-2.13-18.6-1.05l-31.35,7.49c-5.13,1.36-13.66,2.56-18.96,2.67l-30.83.77c-5.3.16-13.74-1.14-18.74-2.89l-32.09-12.38c-4.9-2.02-12.58-1.36-17.07,1.47l-34.15,22.95c-4.29,3.11-11.76,3.88-16.6,1.71l-32.78-16.08c-4.69-2.48-12.87-4.45-18.17-4.38l-30.82.29c-5.3.04-13.63-1.63-18.51-3.71l-32.48-14.31c-4.82-2.22-13.09-3.86-18.39-3.65l-30.83,1.17c-5.3.2-13.38,2.57-17.95,5.25l-33.23,18.15c-4.71,2.44-12.43,2.46-17.16.06L0,18.79v81.21h600v-59.86Z"/>
  <path class="cls-1" d="M600,23.98l-13.18,5.25c-5.03,1.68-13.21,1.53-18.17-.33l-31.79-10.54c-5.11-1.41-13.61-2.14-18.89-1.62l-30.92,3.15c-5.27.55-13.93,1.19-19.22,1.42l-30.85,1.42c-5.3.27-13.65,2.13-18.56,4.12l-32.41,14.04c-4.82,2.21-13.08,4.48-18.35,5.03l-30.93,3.31c-5.27.58-13.78,2.15-18.92,3.47l-31.46,8.27c-5.12,1.38-13.65,2.68-18.95,2.89l-30.83,1.01c-5.3.15-13.84-.82-18.97-2.16l-31.54-8.81c-5.08-1.52-13.48-3.68-18.66-4.81l-31.3-7.06c-5.16-1.23-13.57-1.09-18.68.3l-31.48,8.33c-5.13,1.35-13.66,2.25-18.96,2.01l-30.84-1.27c-5.3-.22-13.94.13-19.21.76l-16.92,1.78v46.06h600V23.98Z"/>
  <path class="cls-2" d="M600,80.69l-12.78,2.14c-5.25.75-13.61-.15-18.57-2.02l-31.85-10.91c-5.08-1.52-13.52-2.08-18.75-1.23l-31.12,5.71c-5.21,1.02-13.8,1.86-19.11,1.89l-30.83.34c-5.3.1-13.98.18-19.28.18l-30.82.03c-5.3.03-13.95-.5-19.21-1.16l-31-4.31c-5.25-.77-13.51.34-18.36,2.48l-32.64,15.09c-4.76,2.35-12.98,4.43-18.28,4.62l-30.83.97c-5.3.15-13.14-2.3-17.42-5.43l-35.03-28.11c-4.01-3.47-11.4-4.9-16.41-3.18l-31.88,10.88c-5.01,1.74-13.37,2.34-18.57,1.33l-31.2-6.19c-5.19-1.07-13.72-2.67-18.95-3.56l-31.09-5.17c-5.23-.87-13.85-1.77-19.14-2l-16.86-.71v47.63h600v-19.31Z"/>
</svg>